<svg width="1200" height="1200" xmlns="http://www.w3.org/2000/svg" clip-rule="evenodd" version="1.1">
 <g>
  <title>Layer 1</title>
  <g id="svg_1">
   <path id="svg_2" opacity="0.987" d="m596.5,214.5c17.059,0.617 28.559,8.95 34.5,25c4.347,14.709 9.68,29.042 16,43c5.498,6.83 12.665,9.997 21.5,9.5c12.667,0.333 25.333,0.667 38,1c24.152,3.484 34.652,17.317 31.5,41.5c-3.224,7.94 -8.057,14.773 -14.5,20.5c-10.667,8 -21.333,16 -32,24c-4.523,4.38 -7.19,9.713 -8,16c3.349,15.382 7.516,30.549 12.5,45.5c5.455,25.514 -4.545,40.514 -30,45c-5.357,-0.298 -10.524,-1.464 -15.5,-3.5c-13.272,-8.274 -26.272,-16.941 -39,-26c-8.667,-6 -17.333,-6 -26,0c-12.728,9.059 -25.728,17.726 -39,26c-20.33,7.413 -35.497,1.58 -45.5,-17.5c-2.256,-10.825 -1.59,-21.491 2,-32c4.359,-12.27 7.859,-24.77 10.5,-37.5c-0.81,-6.287 -3.477,-11.62 -8,-16c-13.743,-9.74 -26.91,-20.24 -39.5,-31.5c-11.124,-14.623 -11.124,-29.29 0,-44c6.892,-6.36 15.059,-9.86 24.5,-10.5c12.667,-0.333 25.333,-0.667 38,-1c12.852,0.477 21.352,-5.356 25.5,-17.5c3.846,-11.715 7.846,-23.382 12,-35c5.041,-14.897 15.207,-23.23 30.5,-25z" fill="#1bc5bf"/>
  </g>
  <g id="svg_3">
   <path id="svg_4" d="m596.5,242.5c5.058,-0.783 8.558,1.217 10.5,6c5.152,13.605 10.152,27.271 15,41c6.689,15.358 18.189,24.858 34.5,28.5c15.302,1.192 30.635,1.859 46,2c13.338,1.69 15.338,7.356 6,17c-12.62,8.896 -24.786,18.396 -36.5,28.5c-11.228,12.34 -14.894,26.673 -11,43c3.057,12.838 6.724,25.505 11,38c2.387,15.599 -3.113,19.099 -16.5,10.5c-11.982,-9.328 -24.648,-17.661 -38,-25c-15.319,-5.71 -29.985,-4.376 -44,4c-10.277,6.611 -20.277,13.611 -30,21c-13.387,8.599 -18.887,5.099 -16.5,-10.5c4.276,-12.495 7.943,-25.162 11,-38c3.894,-16.327 0.228,-30.66 -11,-43c-11.714,-10.104 -23.88,-19.604 -36.5,-28.5c-9.008,-8.299 -7.675,-13.965 4,-17c13,-0.333 26,-0.667 39,-1c17.859,-0.507 31.359,-8.341 40.5,-23.5c6.32,-13.958 11.653,-28.291 16,-43c1.928,-3.532 4.095,-6.866 6.5,-10z" fill="#f8c630"/>
  </g>
  <g id="svg_5">
   <path id="svg_6" opacity="0.985" d="m360.5,292.5c12.937,-0.954 22.104,4.38 27.5,16c3.197,8.592 6.197,17.258 9,26c2.22,7.228 7.053,11.062 14.5,11.5c9.667,0.333 19.333,0.667 29,1c17.704,3.047 25.537,13.547 23.5,31.5c-2.315,7.119 -6.481,12.952 -12.5,17.5c-6,4.333 -12,8.667 -18,13c-6.211,3.92 -8.377,9.42 -6.5,16.5c2.668,9.338 5.335,18.671 8,28c2.454,18.552 -5.546,29.552 -24,33c-3.564,-0.579 -7.064,-1.413 -10.5,-2.5c-10.602,-6.273 -20.936,-12.939 -31,-20c-1.778,-0.704 -3.612,-1.204 -5.5,-1.5c-3.662,1.08 -7.162,2.58 -10.5,4.5c-8.861,7.265 -18.527,13.265 -29,18c-13.769,2.866 -23.936,-1.967 -30.5,-14.5c-1.946,-6.991 -1.946,-13.991 0,-21c3.253,-9.755 6.087,-19.588 8.5,-29.5c-1.817,-4.826 -4.817,-8.826 -9,-12c-8.987,-5.417 -17.153,-11.917 -24.5,-19.5c-8.137,-13.323 -6.637,-25.49 4.5,-36.5c4.28,-2.65 8.947,-4.316 14,-5c9.667,-0.333 19.333,-0.667 29,-1c7.761,-0.09 12.594,-3.923 14.5,-11.5c3.019,-10.726 7.019,-21.06 12,-31c4.216,-6.352 10.05,-10.019 17.5,-11z" fill="#1bc5bf"/>
  </g>
  <g id="svg_7">
   <path id="svg_8" opacity="0.985" d="m830.5,292.5c15.554,-0.808 25.721,6.192 30.5,21c2.333,7 4.667,14 7,21c1.906,7.577 6.739,11.41 14.5,11.5c9.667,0.333 19.333,0.667 29,1c17.082,2.985 24.916,13.152 23.5,30.5c-2.814,9.157 -8.314,16.324 -16.5,21.5c-7.076,4.406 -13.576,9.572 -19.5,15.5c-0.837,1.851 -1.671,3.684 -2.5,5.5c2.413,9.912 5.247,19.745 8.5,29.5c5.272,20.467 -2.395,32.801 -23,37c-6.654,-0.774 -12.821,-2.94 -18.5,-6.5c-6.279,-3.946 -12.279,-8.279 -18,-13c-3.338,-1.92 -6.838,-3.42 -10.5,-4.5c-1.888,0.296 -3.722,0.796 -5.5,1.5c-7.841,5.087 -15.508,10.42 -23,16c-17.04,10.447 -30.873,7.281 -41.5,-9.5c-1.908,-7.31 -1.908,-14.644 0,-22c4.249,-10.32 6.582,-20.986 7,-32c-1.793,-2.795 -3.96,-5.295 -6.5,-7.5c-9.14,-5.993 -17.64,-12.826 -25.5,-20.5c-8.519,-13.957 -6.686,-26.457 5.5,-37.5c4.146,-1.937 8.479,-3.271 13,-4c9.667,-0.333 19.333,-0.667 29,-1c7.447,-0.438 12.28,-4.272 14.5,-11.5c3.122,-12.047 7.788,-23.38 14,-34c4.119,-4.139 8.952,-6.806 14.5,-8z" fill="#1bc5bf"/>
  </g>
  <g id="svg_9">
   <path id="svg_10" d="m362.5,316.5c1.322,-0.17 2.489,0.163 3.5,1c4.305,10.553 8.305,21.22 12,32c5.69,10.679 14.523,17.179 26.5,19.5c10.333,0.333 20.667,0.667 31,1c5.729,0.856 6.396,3.19 2,7c-10.374,6.701 -19.874,14.534 -28.5,23.5c-6.45,8.811 -8.116,18.478 -5,29c2.464,9.059 5.131,18.059 8,27c1.386,5.62 -0.448,7.12 -5.5,4.5c-9.126,-7.12 -18.793,-13.453 -29,-19c-13.737,-4.781 -26.403,-2.781 -38,6c-7.063,5.917 -14.73,10.75 -23,14.5c-0.165,-3.018 0.002,-6.018 0.5,-9c5.537,-12.807 8.204,-26.14 8,-40c-1.697,-6.396 -4.697,-12.062 -9,-17c-7.931,-7.267 -16.431,-13.767 -25.5,-19.5c-3.582,-2.67 -3.582,-5.003 0,-7c12.041,-0.134 24.041,-0.801 36,-2c9.77,-2.441 17.27,-7.941 22.5,-16.5c4.606,-11.656 9.106,-23.323 13.5,-35z" fill="#f8c630"/>
  </g>
  <g id="svg_11">
   <path id="svg_12" opacity="0.999" d="m833.5,316.5c1.322,-0.17 2.489,0.163 3.5,1c3.863,9.923 7.53,19.923 11,30c5.72,12.116 15.22,19.283 28.5,21.5c10.333,0.333 20.667,0.667 31,1c4.938,1.51 5.271,3.843 1,7c-11.503,7.329 -21.67,16.162 -30.5,26.5c-4.657,8.577 -5.657,17.577 -3,27c2.732,9.696 5.565,19.363 8.5,29c-0.108,0.942 -0.441,1.775 -1,2.5c-2.517,0.257 -4.85,-0.41 -7,-2c-8.484,-6.744 -17.484,-12.744 -27,-18c-13.737,-4.781 -26.403,-2.781 -38,6c-5.721,4.721 -11.721,9.054 -18,13c-5.052,2.62 -6.886,1.12 -5.5,-4.5c3.61,-10.497 6.61,-21.164 9,-32c0.823,-8.707 -1.177,-16.707 -6,-24c-9.593,-9.618 -19.926,-18.285 -31,-26c-0.49,-1.293 -0.657,-2.627 -0.5,-4c13.008,-0.567 26.008,-1.401 39,-2.5c12.934,-2.931 21.434,-10.764 25.5,-23.5c2.817,-9.622 6.317,-18.955 10.5,-28z" fill="#f8c630"/>
  </g>
  <g id="svg_13">
   <path id="svg_14" opacity="0.983" d="m175.5,363.5c8.275,-0.895 15.108,1.771 20.5,8c3.784,7.351 6.784,15.018 9,23c1.123,2.749 2.623,5.249 4.5,7.5c11.336,1.055 22.67,2.388 34,4c9.778,4.718 13.945,12.551 12.5,23.5c-1.139,3.612 -2.806,6.946 -5,10c-7.667,6.333 -15.333,12.667 -23,19c-0.667,2 -0.667,4 0,6c2,6.667 4,13.333 6,20c2.755,15.749 -3.745,25.082 -19.5,28c-2.276,-0.713 -4.609,-1.213 -7,-1.5c-8.601,-4.939 -16.935,-10.272 -25,-16c-2.803,-0.755 -5.47,-0.422 -8,1c-7.36,6.014 -15.36,11.014 -24,15c-11.719,2.653 -20.219,-1.514 -25.5,-12.5c-0.667,-5 -0.667,-10 0,-15c2.851,-7.867 4.851,-15.867 6,-24c-1.458,-2.46 -3.291,-4.627 -5.5,-6.5c-6.74,-4.07 -12.907,-8.904 -18.5,-14.5c-6.542,-10.42 -5.708,-20.253 2.5,-29.5c2.715,-1.908 5.715,-3.241 9,-4c10.413,-0.721 20.746,-1.721 31,-3c4.496,-10.149 8.996,-20.316 13.5,-30.5c3.378,-4.094 7.545,-6.761 12.5,-8z" fill="#1bc5bf"/>
  </g>
  <g id="svg_15">
   <path id="svg_16" opacity="0.983" d="m1015.5,363.5c8.27,-0.895 15.11,1.771 20.5,8c4.5,10.184 9,20.351 13.5,30.5c10.25,1.279 20.59,2.279 31,3c12.14,4.085 17.3,12.585 15.5,25.5c-0.81,2.946 -2.14,5.612 -4,8c-5.71,5.437 -11.88,10.27 -18.5,14.5c-2.21,1.873 -4.04,4.04 -5.5,6.5c1.15,8.133 3.15,16.133 6,24c3.23,16.259 -3.27,25.926 -19.5,29c-3.01,-0.769 -6.01,-1.603 -9,-2.5c-7.27,-4.274 -14.27,-8.941 -21,-14c-2.53,-1.422 -5.2,-1.755 -8,-1c-8.07,5.728 -16.4,11.061 -25,16c-10.87,2.488 -19.37,-1.012 -25.5,-10.5c-1.506,-5.246 -1.839,-10.579 -1,-16c2,-6.667 4,-13.333 6,-20c0.667,-2 0.667,-4 0,-6c-7.667,-6.333 -15.333,-12.667 -23,-19c-7.58,-10.537 -7.08,-20.703 1.5,-30.5c2.882,-1.608 5.882,-2.941 9,-4c10.413,-0.721 20.746,-1.721 31,-3c1.877,-2.251 3.377,-4.751 4.5,-7.5c2.216,-7.982 5.216,-15.649 9,-23c3.38,-4.094 7.54,-6.761 12.5,-8z" fill="#1bc5bf"/>
  </g>
  <g id="svg_17">
   <path id="svg_18" d="m178.5,384.5c1.25,0.077 2.083,0.744 2.5,2c2.548,8.98 5.882,17.647 10,26c5.288,6.561 12.122,10.395 20.5,11.5c8.021,0.168 16.021,0.668 24,1.5c-4.834,3.994 -9.834,7.827 -15,11.5c-4.583,3.912 -8.417,8.412 -11.5,13.5c-1.517,5.58 -1.851,11.247 -1,17c1.863,7.422 4.03,14.756 6.5,22c-0.333,0.667 -0.667,1.333 -1,2c-7.596,-5.758 -15.596,-10.924 -24,-15.5c-7.824,-3.502 -15.49,-3.168 -23,1c-7.426,4.462 -14.592,9.295 -21.5,14.5c1.353,-8.414 3.353,-16.747 6,-25c1.456,-7.545 0.123,-14.545 -4,-21c-7.418,-7.259 -15.251,-13.925 -23.5,-20c7.979,-0.832 15.979,-1.332 24,-1.5c11.263,-1.267 19.096,-7.101 23.5,-17.5c2.409,-7.394 4.909,-14.727 7.5,-22z" fill="#f8c630"/>
  </g>
  <g id="svg_19">
   <path id="svg_20" opacity="0.999" d="m1018.5,384.5c1.84,0.622 3,1.956 3.5,4c2.27,7.486 4.94,14.82 8,22c3.77,6.436 9.27,10.603 16.5,12.5c9.65,0.954 19.32,1.787 29,2.5c-7.74,5.967 -15.24,12.3 -22.5,19c-5.05,6.531 -6.72,13.865 -5,22c2.06,7.691 4.23,15.358 6.5,23c-0.33,0.667 -0.67,1.333 -1,2c-8.1,-6.921 -17.1,-12.421 -27,-16.5c-5.75,-0.851 -11.42,-0.517 -17,1c-8.4,4.576 -16.404,9.742 -24,15.5c-0.333,-0.667 -0.667,-1.333 -1,-2c2.47,-7.244 4.637,-14.578 6.5,-22c1.499,-7.873 0.166,-15.206 -4,-22c-7.418,-7.259 -15.251,-13.925 -23.5,-20c9.354,-0.682 18.688,-1.516 28,-2.5c9.97,-2.633 16.8,-8.8 20.5,-18.5c2.27,-6.653 4.44,-13.32 6.5,-20z" fill="#f8c630"/>
  </g>
  <g id="svg_21">
   <path id="svg_22" opacity="0.977" d="m271.5,535.5c0,0.667 -0.333,1 -1,1c-1.333,0 -2,0.667 -2,2c-0.838,0.342 -1.172,1.008 -1,2c-0.667,0 -1,0.333 -1,1c-0.667,0 -1,0.333 -1,1c-0.667,0 -1,0.333 -1,1c-0.667,0 -1,0.333 -1,1c0,0.333 0,0.667 0,1c-1.333,0.333 -1.333,0.667 0,1c0,0.667 -0.333,1 -1,1c-0.667,0 -1,0.333 -1,1c0,0.333 0,0.667 0,1c-0.667,0 -1,0.333 -1,1c-1,0.333 -1.667,1 -2,2c-0.667,0 -1,0.333 -1,1c-0.667,0 -1,0.333 -1,1c-0.333,0 -0.667,0 -1,0c-0.667,0 -1,0.333 -1,1c-1.101,1.348 -2.101,2.848 -3,4.5c31.169,0.168 62.169,0.668 93,1.5c-52.334,-0.167 -104.668,0 -157,0.5c-12.379,3.711 -19.879,11.878 -22.5,24.5c-0.171,31.572 -0.671,63.072 -1.5,94.5c0.481,15.731 0.814,31.398 1,47c-0.333,6.5 -0.667,13 -1,19.5c-2.589,1.787 -2.423,2.121 0.5,1c-2.01,16.36 3.824,28.86 17.5,37.5c3.847,1.616 7.847,2.616 12,3c253,0.333 506,0.667 759,1c-1.906,1.856 -2.74,4.023 -2.5,6.5c1.61,-2.231 3.443,-4.231 5.5,-6c0.586,0.209 1.086,0.543 1.5,1c16.932,-1.813 34.099,-2.646 51.5,-2.5c17.91,-3.41 27.57,-14.244 29,-32.5c-0.81,-36.098 -1.15,-72.098 -1,-108c0,-8.03 0.67,-15.697 2,-23c2.37,3.461 5.54,6.128 9.5,8c4.69,-0.541 9.19,0.459 13.5,3c1,7.303 1.33,14.637 1,22c-3.04,-0.008 -6.04,-0.341 -9,-1c0.16,-1.699 -0.01,-3.366 -0.5,-5c-2.84,4.503 -5.67,9.003 -8.5,13.5c0.5,0.5 1,1 1.5,1.5c3.51,-7.451 8.68,-9.118 15.5,-5c0.41,22.014 0.74,44.181 1,66.5c0.12,14.211 -0.38,28.377 -1.5,42.5c-8.49,28.099 -27.49,42.765 -57,44c-22.205,-0.032 -44.372,-0.032 -66.5,0c-3.021,0.083 -5.855,-0.584 -8.5,-2c-38.06,1.324 -76.227,1.991 -114.5,2c-37.667,-0.167 -75.333,-0.333 -113,-0.5c-0.5,-0.5 -1,-1 -1.5,-1.5c-65.624,1.332 -131.457,1.998 -197.5,2c-67.568,-0.343 -135.068,-0.343 -202.5,0c-0.945,-0.405 -1.612,-1.072 -2,-2c-8.23,1.952 -16.73,2.618 -25.5,2c-1.308,-9.784 -2.975,-10.117 -5,-1c-28.022,1.429 -56.022,1.263 -84,-0.5c-25.064,-6.717 -39.897,-22.55 -44.5,-47.5c-0.5,-44.999 -0.667,-89.999 -0.5,-135c1.609,0.406 2.943,0.406 4,0c-1.189,-0.929 -2.522,-1.262 -4,-1c-0.167,-15.67 0,-31.337 0.5,-47c1.215,-8.324 3.882,-15.658 8,-22c1.458,-1.247 2.958,-1.247 4.5,0c4.969,-1.426 5.136,-3.093 0.5,-5c-0.667,-0.667 -0.667,-1.333 0,-2c9.226,-10.365 20.726,-16.698 34.5,-19c2.612,1.435 5.112,3.102 7.5,5c0.667,-0.667 0.667,-1.333 0,-2c-1.255,-0.711 -2.421,-1.544 -3.5,-2.5c26.913,-0.217 53.913,-0.383 81,-0.5zm473,92c1.725,0.343 2.225,1.343 1.5,3c-1.039,-0.744 -1.539,-1.744 -1.5,-3zm-584,3c0.886,-1.276 1.886,-1.276 3,0c-0.925,1.062 -1.925,1.062 -3,0zm781,0c0.71,2.393 1.377,4.893 2,7.5c-0.626,0.75 -1.126,1.584 -1.5,2.5c-0.27,-2.724 -0.77,-5.391 -1.5,-8c0.363,-0.683 0.696,-1.35 1,-2zm-201,1c1.699,-0.16 3.366,0.006 5,0.5c-2.085,2.139 -3.751,1.972 -5,-0.5zm-247,2c1.276,0.886 1.276,1.886 0,3c-0.587,-0.733 -0.587,-1.733 0,-3zm-279,2c1.837,0.139 2.17,0.806 1,2c-0.798,-0.457 -1.131,-1.124 -1,-2zm588,13c-1.453,-1.433 -2.287,-3.1 -2.5,-5c2.573,2.505 4.74,2.005 6.5,-1.5c2.782,-0.183 3.449,0.984 2,3.5c-2.034,1.059 -4.034,2.059 -6,3zm53,-6c1.526,0.605 2.526,1.771 3,3.5c-1.978,-0.033 -2.978,-1.2 -3,-3.5zm87,1c2.267,2.133 2.434,4.466 0.5,7c-0.87,-0.608 -1.37,-1.441 -1.5,-2.5c0.648,-1.44 0.981,-2.94 1,-4.5zm74,3c1.12,1.589 0.95,3.256 -0.5,5c-0.38,-1.697 -0.22,-3.363 0.5,-5zm-456,5c2.109,0.552 2.942,1.886 2.5,4c-1.481,-0.971 -2.315,-2.304 -2.5,-4zm454,1c0.62,0.417 0.96,1.084 1,2c-1,3.339 -2,6.673 -3,10c-0.33,-0.5 -0.67,-1 -1,-1.5c1.31,-3.431 2.31,-6.931 3,-10.5zm-305,1c1.098,1.101 1.265,2.434 0.5,4c-1.511,-1.064 -1.677,-2.397 -0.5,-4zm232,10c-0.376,-2.907 0.124,-5.907 1.5,-9c0.692,0.525 1.192,1.192 1.5,2c-1.161,2.385 -2.161,4.719 -3,7zm-501,-8c-0.762,1.762 -2.096,2.762 -4,3c0.762,-1.762 2.096,-2.762 4,-3zm358,0c0.271,1.88 -0.396,3.213 -2,4c0.16,-1.653 0.826,-2.986 2,-4zm-362,3c-0.79,0.901 -1.79,1.568 -3,2c0.321,-1.548 1.321,-2.215 3,-2zm-210,2c-1.442,4.174 -2.609,8.508 -3.5,13c-1.274,2.891 -2.774,5.558 -4.5,8c0.443,-7.581 3.109,-14.581 8,-21zm566,5c-0.039,-1.256 0.461,-2.256 1.5,-3c0.585,1.498 0.085,2.498 -1.5,3zm-123,20c0.493,-3.976 1.493,-7.81 3,-11.5c-0.522,-2.289 0.145,-4.456 2,-6.5c-0.928,-1.268 -1.095,-2.601 -0.5,-4c1.504,3.539 1.837,7.205 1,11c-1.565,3.902 -3.398,7.569 -5.5,11zm42,-20c1.448,3.096 1.948,6.429 1.5,10c-1.316,-3.188 -1.816,-6.522 -1.5,-10zm81,0c-0.283,0.789 -0.783,1.456 -1.5,2c-0.528,-1.316 -0.028,-1.983 1.5,-2zm-559,30c1.333,0 2.667,0 4,0c-2.161,-9.659 -2.161,-18.992 0,-28c-0.002,5.544 0.164,11.211 0.5,17c0.5,1.167 1.333,2 2.5,2.5c-1.279,4.998 0.388,8.831 5,11.5c-1.541,3.373 -3.874,3.873 -7,1.5c-1.74,-1.517 -3.406,-3.017 -5,-4.5zm31,-27c-0.17,1.322 0.163,2.489 1,3.5c-0.5,0.5 -1,1 -1.5,1.5c-0.78,-1.887 -0.613,-3.554 0.5,-5zm209,0c-0.209,1.422 -0.709,2.755 -1.5,4c-0.773,-1.852 -0.273,-3.186 1.5,-4zm538,0c-0.49,0.973 -0.99,1.973 -1.5,3c-0.73,-1.657 -0.23,-2.657 1.5,-3zm-447,15c-0.331,-1.822 -0.998,-3.489 -2,-5c1.083,0.039 2.083,0.373 3,1c1.571,-1.915 3.571,-2.915 6,-3c-0.17,1.322 0.163,2.489 1,3.5c-3.005,0.533 -5.672,1.7 -8,3.5zm435,-5c1.373,-0.157 2.71,0.01 4,0.5c-2.767,1.893 -5.767,2.893 -9,3c1.733,-1.189 3.4,-2.356 5,-3.5zm-286,2c1.209,1.935 1.042,3.935 -0.5,6c-0.678,-2.098 -0.511,-4.098 0.5,-6zm148,0c-1.391,4.161 -4.391,6.161 -9,6c2.475,-2.741 5.475,-4.741 9,-6zm143,1c1,0 2,0 3,0c0.16,1.699 -0.01,3.366 -0.5,5c-0.48,-0.948 -0.65,-1.948 -0.5,-3c-1.7,0.16 -3.37,-0.006 -5,-0.5c1.24,-0.232 2.24,-0.732 3,-1.5zm-532,2c1.145,3.811 1.312,7.811 0.5,12c-1.638,-3.929 -1.805,-7.929 -0.5,-12zm315,1c-0.095,2.286 -0.762,4.286 -2,6c-0.241,-2.398 0.426,-4.398 2,-6zm57,0c2.475,0.247 2.475,0.913 0,2c-0.963,-0.47 -0.963,-1.137 0,-2zm-514,4c1.996,-1.188 2.829,-0.521 2.5,2c-0.708,-0.881 -1.542,-1.547 -2.5,-2zm-102,0c1.604,0.787 2.271,2.12 2,4c-1.174,-1.014 -1.84,-2.347 -2,-4zm331,4c-0.039,-1.256 0.461,-2.256 1.5,-3c0.585,1.498 0.085,2.498 -1.5,3zm226,-2c-0.059,3.546 -0.892,6.879 -2.5,10c-0.374,-0.916 -0.874,-1.75 -1.5,-2.5c1.504,-2.514 2.838,-5.014 4,-7.5zm-73,6c-0.285,-1.788 0.048,-3.455 1,-5c1.134,1.939 0.8,3.605 -1,5zm-481,-3c1,0.333 1.667,1 2,2c-1.333,0 -2,-0.667 -2,-2zm325,4c-0.326,2.501 -1.659,3.668 -4,3.5c1.205,-1.376 2.538,-2.542 4,-3.5zm360,7c-1.378,0.734 -2.878,1.401 -4.5,2c-0.667,-3 -0.667,-6 0,-9c0.497,2.31 0.663,4.643 0.5,7c1.333,0 2.667,0 4,0zm-485,16c2.244,-6.276 3.911,-12.443 5,-18.5c-1.241,-4.45 -0.574,-4.616 2,-0.5c-0.962,6.908 -3.295,13.241 -7,19zm42,-19c1.885,2.295 2.385,4.962 1.5,8c-0.822,-2.617 -1.322,-5.284 -1.5,-8zm308,1c1.301,1.956 0.801,3.623 -1.5,5c0.134,-1.689 0.634,-3.356 1.5,-5zm-538,2c0.543,0.06 0.876,0.393 1,1c-0.598,1.295 -1.098,2.628 -1.5,4c-0.374,-0.916 -0.874,-1.75 -1.5,-2.5c0.881,-0.708 1.547,-1.542 2,-2.5zm672,4c2.486,-1.162 4.986,-2.496 7.5,-4c-0.25,3.076 -2.083,4.742 -5.5,5c-0.683,-0.363 -1.35,-0.696 -2,-1zm-581,12c0.172,-1.992 -0.495,-3.658 -2,-5c0.891,-1.09 1.891,-1.09 3,0c1.973,-1.14 3.807,-2.473 5.5,-4c0.309,1.266 0.809,2.433 1.5,3.5c-2.869,1.596 -5.536,3.43 -8,5.5zm141,-6c1.374,2.017 1.207,4.017 -0.5,6c-0.49,-2.045 -0.323,-4.045 0.5,-6zm294,0c1.373,-0.157 2.707,0.01 4,0.5c-2.371,2.01 -5.037,3.01 -8,3c1.231,-1.405 2.564,-2.571 4,-3.5zm139,1c0.597,0.235 0.93,0.735 1,1.5c-0.817,1.49 -1.65,2.99 -2.5,4.5c-0.322,-2.189 0.178,-4.189 1.5,-6zm-358,1c0.009,1.808 -0.491,3.475 -1.5,5c-0.599,-2.035 -0.099,-3.701 1.5,-5zm224,1c1,0 2,0 3,0c0.164,2.687 -0.003,5.354 -0.5,8c-0.495,-1.973 -0.662,-3.973 -0.5,-6c-1.373,0.157 -2.707,-0.01 -4,-0.5c0.916,-0.278 1.582,-0.778 2,-1.5zm-362,1c1.647,1.686 1.814,3.353 0.5,5c-0.494,-1.634 -0.66,-3.301 -0.5,-5zm-169,2c0.164,2.687 -0.003,5.354 -0.5,8c-0.374,-0.916 -0.874,-1.75 -1.5,-2.5c0.609,-1.948 1.276,-3.782 2,-5.5zm662,7c-0.157,-1.373 0.01,-2.707 0.5,-4c1.534,1.381 1.368,2.714 -0.5,4zm-574,-2c0.271,1.88 -0.396,3.213 -2,4c0.16,-1.653 0.826,-2.986 2,-4zm142,10c0.205,-3.488 1.039,-6.821 2.5,-10c0.5,0.5 1,1 1.5,1.5c-1.264,2.958 -2.598,5.791 -4,8.5zm73,-10c1.288,1.535 1.288,3.201 0,5c-0.552,-1.503 -0.552,-3.169 0,-5zm359,2c0.237,1.291 -0.096,2.291 -1,3c-1.315,-1.395 -0.981,-2.395 1,-3zm70,0c1.344,1.685 1.177,3.352 -0.5,5c-0.384,-1.697 -0.218,-3.363 0.5,-5zm-431,4c2.352,1.043 2.519,2.376 0.5,4c-0.49,-1.293 -0.657,-2.627 -0.5,-4zm359,2c0.253,2.327 -0.414,4.327 -2,6c-0.333,-0.167 -0.667,-0.333 -1,-0.5c1.109,-1.876 2.109,-3.709 3,-5.5zm-659,2c0.798,2.671 1.465,5.504 2,8.5c-0.333,0.5 -0.667,1 -1,1.5c-0.987,-3.268 -1.32,-6.602 -1,-10zm442,5c-4.7,3.412 -6.2,2.078 -4.5,-4c0.112,2.947 1.612,4.28 4.5,4zm157,-4c2.26,0.738 2.427,1.738 0.5,3c-1.728,-0.852 -1.895,-1.852 -0.5,-3zm-65,4c0.965,1.221 0.798,2.554 -0.5,4c-0.579,-1.428 -0.412,-2.762 0.5,-4zm-88,1c1.052,-0.149 2.052,0.017 3,0.5c-2.104,2.606 -4.438,3.273 -7,2c1.566,-0.608 2.9,-1.442 4,-2.5zm-542,3c1.349,-1.297 2.682,-1.13 4,0.5c-1.428,0.579 -2.762,0.412 -4,-0.5zm392,1c1.073,0.751 1.24,1.751 0.5,3c-1.728,-0.852 -1.895,-1.852 -0.5,-3zm-7,3c0.789,0.283 1.456,0.783 2,1.5c-2.333,1.167 -4.667,2.333 -7,3.5c-0.333,-0.333 -0.667,-0.667 -1,-1c1.79,-1.816 3.79,-3.149 6,-4zm518,32c0.58,-1.273 1.24,-1.273 2,0c-0.47,0.963 -1.14,0.963 -2,0zm-836,11c1.276,0.886 1.276,1.886 0,3c-1.062,-0.925 -1.062,-1.925 0,-3zm790,5c3.78,-0.031 3.94,0.636 0.5,2c-1.68,-0.183 -1.85,-0.85 -0.5,-2zm-59,4c0.017,-1.528 0.684,-2.028 2,-1.5c-0.544,0.717 -1.211,1.217 -2,1.5zm72,-1c2.15,0.417 2.81,1.417 2,3c-2.37,-0.392 -3.04,-1.392 -2,-3zm-211,2c1.965,0.448 2.298,1.448 1,3c-0.886,-0.825 -1.219,-1.825 -1,-3zm148,7c-1.84,2.169 -4.174,3.502 -7,4c1.836,-2.088 4.169,-3.421 7,-4z" fill="#1bc5bf"/>
  </g>
  <g id="svg_23">
   <path id="svg_24" opacity="0.98" d="m270.5,535.5c30.335,-0.167 60.668,0 91,0.5c-1.054,1.388 -1.22,2.888 -0.5,4.5c0.707,-1.581 1.54,-3.081 2.5,-4.5c217.333,-0.667 434.667,-0.667 652,0c23.29,5.288 38.12,19.454 44.5,42.5c1.66,18.814 1.99,37.481 1,56c-8.18,-1.895 -16.01,-4.895 -23.5,-9c-1.79,-12.757 -2.62,-25.757 -2.5,-39c-2.59,-12.596 -10.09,-20.763 -22.5,-24.5c-44.904,-0.169 -89.738,-0.669 -134.5,-1.5c-117.521,0.378 -234.687,0.711 -351.5,1c-0.667,-4 -1.333,-4 -2,0c-47.333,0 -94.667,0 -142,0c-0.17,-1.322 0.163,-2.489 1,-3.5c1.965,-1.565 4.131,-2.732 6.5,-3.5c3.434,2.901 6.934,3.234 10.5,1c-0.209,-0.586 -0.543,-1.086 -1,-1.5c-3.75,-0.26 -7.416,-0.927 -11,-2c-0.691,-1.067 -1.191,-2.234 -1.5,-3.5c-3.096,3.602 -5.596,7.602 -7.5,12c-5.972,1.164 -11.972,1.33 -18,0.5c-1.667,-0.833 -3.333,-1.667 -5,-2.5c-0.886,0.825 -1.219,1.825 -1,3c-4.15,-0.256 -8.15,-0.256 -12,0c-30.831,-0.832 -61.831,-1.332 -93,-1.5c0.899,-1.652 1.899,-3.152 3,-4.5c0.667,0 1,-0.333 1,-1c0.333,0 0.667,0 1,0c0.667,0 1,-0.333 1,-1c0.667,0 1,-0.333 1,-1c1.333,0 2,-0.667 2,-2c0.667,0 1,-0.333 1,-1c0,-0.333 0,-0.667 0,-1c0.667,0 1,-0.333 1,-1c0.667,0 1,-0.333 1,-1c0,-0.333 0,-0.667 0,-1c1.333,-0.333 1.333,-0.667 0,-1c0,-0.667 0.333,-1 1,-1c0.667,0 1,-0.333 1,-1c0.667,0 1,-0.333 1,-1c0.667,0 1,-0.333 1,-1c0.838,-0.342 1.172,-1.008 1,-2c1,-0.333 1.667,-1 2,-2c0.667,0 1,-0.333 1,-1zm203,4c2.501,0.011 2.668,0.678 0.5,2c-0.464,-0.594 -0.631,-1.261 -0.5,-2zm117,0c1.297,1.349 1.13,2.682 -0.5,4c-0.195,-1.319 -0.028,-2.653 0.5,-4zm311,0c1.599,1.299 2.099,2.965 1.5,5c-1.808,-1.533 -2.308,-3.2 -1.5,-5zm-171,1c0.219,1.175 -0.114,2.175 -1,3c-1.165,-1.36 -0.832,-2.36 1,-3zm-289,1c1.422,0.25 2.422,1.083 3,2.5c-1.989,0.519 -2.989,-0.314 -3,-2.5zm261,1c2.987,1.608 3.654,3.942 2,7c7.501,0.362 13.835,3.529 19,9.5c-4.039,-2.18 -8.373,-4.18 -13,-6c-6.136,-1.092 -12.136,-2.425 -18,-4c1.124,-0.249 2.124,-0.749 3,-1.5c-1.006,-0.896 -1.006,-1.562 0,-2c2.31,1.912 4.977,2.912 8,3c-0.017,-2.065 -0.35,-4.065 -1,-6zm-219,3c3.978,2.89 3.645,4.224 -1,4c-0.067,-1.459 0.266,-2.792 1,-4zm-168,7c0.577,-1.273 1.243,-1.273 2,0c-0.47,0.963 -1.137,0.963 -2,0zm638,0c1.987,0.664 3.654,1.831 5,3.5c-2.868,0.64 -4.535,-0.527 -5,-3.5zm-602,2c1.333,0.667 2.333,1.667 3,3c-1,0 -2,0 -3,0c0,-1 0,-2 0,-3zm51,2c0.577,-1.273 1.243,-1.273 2,0c-0.47,0.963 -1.137,0.963 -2,0z" fill="#1bc5bf"/>
  </g>
  <g id="svg_25">
   <path id="svg_26" opacity="0.959" d="m430.5,720.5c-2.124,4.82 -3.79,9.82 -5,15c-2.161,0.326 -3.994,1.326 -5.5,3c-0.45,2.019 -1.283,3.852 -2.5,5.5c-7.562,5.68 -15.895,8.847 -25,9.5c0.826,-0.951 0.992,-1.951 0.5,-3c-2.428,1.13 -4.595,2.63 -6.5,4.5c-22.839,2.939 -42.005,-4.227 -57.5,-21.5c-0.49,-1.293 -0.657,-2.627 -0.5,-4c-0.897,1.098 -1.73,1.098 -2.5,0c-6.75,-11.25 -10.917,-23.417 -12.5,-36.5c1.938,-1.988 3.938,-3.988 6,-6c1.941,-0.304 3.607,-1.137 5,-2.5c1.35,1.45 3.016,2.117 5,2c-0.202,-5.639 -1.536,-10.972 -4,-16c-0.07,-1.921 0.096,-3.921 0.5,-6c-2.303,1.244 -2.803,2.911 -1.5,5c-0.754,3.277 -1.254,6.61 -1.5,10c-8.267,9.508 -11.434,7.842 -9.5,-5c-0.495,-25.165 8.839,-45.665 28,-61.5c2.9,-1.742 5.9,-3.242 9,-4.5c0.667,0.333 1.333,0.667 2,1c0.213,3.23 -0.287,6.564 -1.5,10c-2.373,2.307 -5.206,3.973 -8.5,5c-1.45,1.35 -2.117,3.016 -2,5c4.583,-2.062 9.083,-4.395 13.5,-7c0.667,0.667 1.333,1.333 2,2c-0.07,-2.466 0.096,-4.8 0.5,-7c-0.96,-1.977 -1.96,-3.977 -3,-6c0.515,-1.725 1.182,-3.392 2,-5c28.076,-9.273 52.243,-3.273 72.5,18c11.51,16.582 17.01,34.749 16.5,54.5c0.587,17.489 -3.58,33.656 -12.5,48.5c-0.977,-2.24 -1.477,-4.573 -1.5,-7zm-47,-111c1.209,2.769 2.876,5.269 5,7.5c-0.96,1.419 -1.793,2.919 -2.5,4.5c-0.53,-4.083 -1.363,-8.083 -2.5,-12zm-11,22c-7.415,2.236 -12.915,6.903 -16.5,14c-6.135,19.033 -7.135,38.366 -3,58c3.471,15.148 12.804,23.481 28,25c15.575,-5.751 23.908,-17.085 25,-34c0.667,-10.333 0.667,-20.667 0,-31c-0.706,-5.49 -2.039,-10.823 -4,-16c-5.903,-12.207 -15.737,-17.541 -29.5,-16zm67,24c-0.762,1.762 -2.096,2.762 -4,3c0.762,-1.762 2.096,-2.762 4,-3zm-4,3c-0.79,0.901 -1.79,1.568 -3,2c0.321,-1.548 1.321,-2.215 3,-2zm-106,30c0.958,0.453 1.792,1.119 2.5,2c0.329,-2.521 -0.504,-3.188 -2.5,-2zm101,32c3.705,-5.759 6.038,-12.092 7,-19c-2.574,-4.116 -3.241,-3.95 -2,0.5c-1.089,6.057 -2.756,12.224 -5,18.5zm-97,0c2.464,-2.07 5.131,-3.904 8,-5.5c-0.691,-1.067 -1.191,-2.234 -1.5,-3.5c-1.693,1.527 -3.527,2.86 -5.5,4c-1.109,-1.09 -2.109,-1.09 -3,0c1.505,1.342 2.172,3.008 2,5zm78,-2c-0.16,1.699 0.006,3.366 0.5,5c1.314,-1.647 1.147,-3.314 -0.5,-5zm-81,7c0.271,1.88 -0.396,3.213 -2,4c0.16,-1.653 0.826,-2.986 2,-4z" fill="#1bc5bf"/>
  </g>
  <g id="svg_27">
   <path id="svg_28" opacity="0.942" d="m226.5,658.5c-0.838,0.342 -1.172,1.008 -1,2c-4.891,6.419 -7.557,13.419 -8,21c-0.876,0.131 -1.543,-0.202 -2,-1c-8,-16 -16,-32 -24,-48c1.726,-1.728 3.059,-3.728 4,-6c-6.955,-2.284 -11.789,-7.284 -14.5,-15c-0.497,-2.31 -0.663,-4.643 -0.5,-7c12.338,-0.167 24.671,0 37,0.5c5.993,14.249 11.993,28.083 18,41.5c-1.375,3.047 -3.708,4.38 -7,4c-0.173,-2.679 -1.173,-5.013 -3,-7c0.108,-0.942 0.441,-1.775 1,-2.5c-1.541,-2.04 -2.874,-4.207 -4,-6.5c-1.109,-1.09 -2.109,-1.09 -3,0c1.37,3.072 2.37,6.239 3,9.5c-0.667,0.333 -1.333,0.667 -2,1c1.616,0.615 2.949,1.615 4,3c-1.102,2.401 -1.269,4.901 -0.5,7.5c1.417,0.578 2.25,1.578 2.5,3zm-13,-23c-0.131,0.876 0.202,1.543 1,2c1.17,-1.194 0.837,-1.861 -1,-2z" fill="#1bc5bf"/>
  </g>
  <g id="svg_29">
   <path id="svg_30" opacity="0.948" d="m277.5,608.5c0,-1.333 0,-2.667 0,-4c11.02,-0.332 22.02,0.001 33,1c-15.624,31.248 -31.457,62.915 -47.5,95c-0.5,17.664 -0.667,35.33 -0.5,53c-12.253,-0.64 -24.587,-0.64 -37,0c0.167,-18.003 0,-36.003 -0.5,-54c-3.356,-5.704 -5.856,-11.704 -7.5,-18c1.726,-2.442 3.226,-5.109 4.5,-8c0.891,-4.492 2.058,-8.826 3.5,-13c0.838,-0.342 1.172,-1.008 1,-2c2.1,-2.604 4.433,-5.104 7,-7.5c1.333,-0.667 2.667,-0.667 4,0c-0.333,0.333 -0.667,0.667 -1,1c3.042,4.58 5.708,9.413 8,14.5c9.232,-20.46 17.899,-41.127 26,-62c2,0 4,0 6,0c-0.268,1.599 0.066,2.932 1,4zm0,0c0.945,4.376 1.945,8.876 3,13.5c-0.333,0.5 -0.667,1 -1,1.5c-1.542,-4.877 -2.209,-9.877 -2,-15zm20,14c0.577,-1.273 1.243,-1.273 2,0c-0.47,0.963 -1.137,0.963 -2,0zm-65,73c1.594,1.483 3.26,2.983 5,4.5c3.126,2.373 5.459,1.873 7,-1.5c-4.612,-2.669 -6.279,-6.502 -5,-11.5c-1.167,-0.5 -2,-1.333 -2.5,-2.5c-0.336,-5.789 -0.502,-11.456 -0.5,-17c-2.161,9.008 -2.161,18.341 0,28c-1.333,0 -2.667,0 -4,0zm31,-27c-1.113,1.446 -1.28,3.113 -0.5,5c0.5,-0.5 1,-1 1.5,-1.5c-0.837,-1.011 -1.17,-2.178 -1,-3.5zm-36,20c1.604,0.787 2.271,2.12 2,4c-1.174,-1.014 -1.84,-2.347 -2,-4zm3,5c1,0.333 1.667,1 2,2c-1.333,0 -2,-0.667 -2,-2zm12,11c-0.453,0.958 -1.119,1.792 -2,2.5c0.626,0.75 1.126,1.584 1.5,2.5c0.402,-1.372 0.902,-2.705 1.5,-4c-0.124,-0.607 -0.457,-0.94 -1,-1zm0,16c-0.724,1.718 -1.391,3.552 -2,5.5c0.626,0.75 1.126,1.584 1.5,2.5c0.497,-2.646 0.664,-5.313 0.5,-8zm1,15c-0.32,3.398 0.013,6.732 1,10c0.333,-0.5 0.667,-1 1,-1.5c-0.535,-2.996 -1.202,-5.829 -2,-8.5z" fill="#1bc5bf"/>
  </g>
  <g id="svg_31">
   <path id="svg_32" opacity="0.961" d="m472.5,735.5c-5.839,-6.017 -9.339,-13.35 -10.5,-22c-0.833,-17.676 -0.666,-35.343 0.5,-53c2.548,2.442 5.548,4.108 9,5c1.22,-0.387 1.887,-1.22 2,-2.5c-1.035,-1.274 -2.202,-2.44 -3.5,-3.5c-0.763,-4.954 -2.263,-9.62 -4.5,-14c0.222,-4.911 0.389,-9.911 0.5,-15c-1.018,3.243 -1.518,6.576 -1.5,10c0.188,6.298 0.522,12.632 1,19c-1.333,0 -2.667,0 -4,0c-0.167,-14.337 0,-28.671 0.5,-43c3.611,-2.203 7.444,-4.036 11.5,-5.5c-4.412,-0.588 -8.246,0.579 -11.5,3.5c-0.498,-3.317 -0.665,-6.65 -0.5,-10c12.247,-0.322 24.414,0.012 36.5,1c0.333,35.333 0.667,70.667 1,106c2.878,10.618 9.878,15.951 21,16c13.978,-0.645 21.312,-7.978 22,-22c0.333,-16 0.667,-32 1,-48c3.09,-3.92 6.923,-6.92 11.5,-9c1.369,1.624 3.036,2.124 5,1.5c-2.092,-7.742 -3.592,-15.575 -4.5,-23.5c-0.199,1.902 -1.033,3.402 -2.5,4.5c0.522,0.561 0.855,1.228 1,2c-0.73,3.794 -1.23,7.627 -1.5,11.5c-2.353,2.905 -5.353,4.905 -9,6c-0.5,-15.33 -0.667,-30.663 -0.5,-46c12,0 24,0 36,0c0.167,36.335 0,72.668 -0.5,109c-4.126,20.913 -16.459,34.247 -37,40c-2.906,-1.922 -5.739,-1.422 -8.5,1.5c-18.62,2.899 -35.953,-0.435 -52,-10c-3.277,-2.766 -5.943,-5.933 -8,-9.5zm20,-102c-0.587,1.267 -0.587,2.267 0,3c1.276,-1.114 1.276,-2.114 0,-3zm67,18c0.185,1.696 1.019,3.029 2.5,4c0.442,-2.114 -0.391,-3.448 -2.5,-4zm-87,17c-1.773,0.814 -2.273,2.148 -1.5,4c0.791,-1.245 1.291,-2.578 1.5,-4zm91,15c-0.331,-1.822 -0.998,-3.489 -2,-5c1.083,0.039 2.083,0.373 3,1c1.571,-1.915 3.571,-2.915 6,-3c-0.17,1.322 0.163,2.489 1,3.5c-3.005,0.533 -5.672,1.7 -8,3.5zm-92,0c-1.305,4.071 -1.138,8.071 0.5,12c0.812,-4.189 0.645,-8.189 -0.5,-12zm87,9c1.585,-0.502 2.085,-1.502 1.5,-3c-1.039,0.744 -1.539,1.744 -1.5,3zm-3,5c-1.462,0.958 -2.795,2.124 -4,3.5c2.341,0.168 3.674,-0.999 4,-3.5zm-83,4c0.178,2.716 0.678,5.383 1.5,8c0.885,-3.038 0.385,-5.705 -1.5,-8zm2,13c-0.823,1.955 -0.99,3.955 -0.5,6c1.707,-1.983 1.874,-3.983 0.5,-6zm75,2c-1.599,1.299 -2.099,2.965 -1.5,5c1.009,-1.525 1.509,-3.192 1.5,-5zm-77,19c1.402,-2.709 2.736,-5.542 4,-8.5c-0.5,-0.5 -1,-1 -1.5,-1.5c-1.461,3.179 -2.295,6.512 -2.5,10zm73,-10c-0.552,1.831 -0.552,3.497 0,5c1.288,-1.799 1.288,-3.465 0,-5zm-2,6c-0.157,1.373 0.01,2.707 0.5,4c2.019,-1.624 1.852,-2.957 -0.5,-4zm-4,14c-1.395,1.148 -1.228,2.148 0.5,3c0.74,-1.249 0.573,-2.249 -0.5,-3zm-7,3c-2.21,0.851 -4.21,2.184 -6,4c0.333,0.333 0.667,0.667 1,1c2.333,-1.167 4.667,-2.333 7,-3.5c-0.544,-0.717 -1.211,-1.217 -2,-1.5z" fill="#1bc5bf"/>
  </g>
  <g id="svg_33">
   <path id="svg_34" opacity="0.96" d="m668.5,685.5c-2.067,3.293 -3.4,6.96 -4,11c-1.602,1.05 -2.435,0.383 -2.5,-2c-6.431,-29.886 -12.931,-59.719 -19.5,-89.5c12.329,-0.5 24.662,-0.667 37,-0.5c0.452,3.376 1.118,6.709 2,10c-0.813,1.314 -1.813,2.481 -3,3.5c1.325,-0.148 2.492,0.018 3.5,0.5c4.774,25.647 9.441,51.314 14,77c6.746,-30.582 13.246,-60.915 19.5,-91c10.667,0 21.333,0 32,0c6.25,29.384 12.75,59.051 19.5,89c4.878,-23.933 9.545,-47.933 14,-72c3.387,-3.053 7.053,-5.72 11,-8c1.101,1.894 2.434,2.561 4,2c-0.238,-3.609 -0.405,-7.275 -0.5,-11c8.36,-0.331 16.693,0.002 25,1c-10.656,48.957 -21.156,97.957 -31.5,147c-12.754,0.989 -25.587,1.322 -38.5,1c-6.042,-27.167 -12.542,-54.167 -19.5,-81c-5.854,26.749 -12.021,53.416 -18.5,80c-12.925,1.24 -25.592,1.24 -38,0c-3.331,-14.989 -6.665,-29.989 -10,-45c2.392,-3.068 4.392,-6.401 6,-10c-1.158,-3.616 -1.824,-7.616 -2,-12zm128,-68c0.397,-1.025 1.063,-1.192 2,-0.5c2.047,2.054 2.047,3.054 0,3c-0.566,-0.995 -1.233,-1.828 -2,-2.5zm-120,4c-0.502,1.585 -1.502,2.085 -3,1.5c0.744,-1.039 1.744,-1.539 3,-1.5zm-7,3c0.739,-0.131 1.406,0.036 2,0.5c-1.382,4.705 -2.049,4.539 -2,-0.5zm74,3c-0.039,1.256 0.461,2.256 1.5,3c0.725,-1.657 0.225,-2.657 -1.5,-3zm-4,4c1.249,2.472 2.915,2.639 5,0.5c-1.634,-0.494 -3.301,-0.66 -5,-0.5zm62,17c1.966,-0.941 3.966,-1.941 6,-3c1.449,-2.516 0.782,-3.683 -2,-3.5c-1.76,3.505 -3.927,4.005 -6.5,1.5c0.213,1.9 1.047,3.567 2.5,5zm-93,5c-1.177,1.603 -1.011,2.936 0.5,4c0.765,-1.566 0.598,-2.899 -0.5,-4zm89,2c0.271,1.88 -0.396,3.213 -2,4c0.16,-1.653 0.826,-2.986 2,-4zm-6,10c1.585,-0.502 2.085,-1.502 1.5,-3c-1.039,0.744 -1.539,1.744 -1.5,3zm-123,20c2.102,-3.431 3.935,-7.098 5.5,-11c0.837,-3.795 0.504,-7.461 -1,-11c-0.595,1.399 -0.428,2.732 0.5,4c-1.855,2.044 -2.522,4.211 -2,6.5c-1.507,3.69 -2.507,7.524 -3,11.5zm42,-20c-0.316,3.478 0.184,6.812 1.5,10c0.448,-3.571 -0.052,-6.904 -1.5,-10zm81,0c-1.528,0.017 -2.028,0.684 -1.5,2c0.717,-0.544 1.217,-1.211 1.5,-2zm-79,15c-1.011,1.902 -1.178,3.902 -0.5,6c1.542,-2.065 1.709,-4.065 0.5,-6zm74,4c-0.095,2.286 -0.762,4.286 -2,6c-0.241,-2.398 0.426,-4.398 2,-6zm-2,6c-1.162,2.486 -2.496,4.986 -4,7.5c0.626,0.75 1.126,1.584 1.5,2.5c1.608,-3.121 2.441,-6.454 2.5,-10zm-73,6c1.8,-1.395 2.134,-3.061 1,-5c-0.952,1.545 -1.285,3.212 -1,5zm69,6c-0.866,1.644 -1.366,3.311 -1.5,5c2.301,-1.377 2.801,-3.044 1.5,-5zm-12,12c-1.436,0.929 -2.769,2.095 -4,3.5c2.963,0.01 5.629,-0.99 8,-3c-1.293,-0.49 -2.627,-0.657 -4,-0.5zm5,3c-0.418,0.722 -1.084,1.222 -2,1.5c1.293,0.49 2.627,0.657 4,0.5c-0.162,2.027 0.005,4.027 0.5,6c0.497,-2.646 0.664,-5.313 0.5,-8c-1,0 -2,0 -3,0zm-88,23c-2.888,0.28 -4.388,-1.053 -4.5,-4c-1.7,6.078 -0.2,7.412 4.5,4zm92,0c-0.912,1.238 -1.079,2.572 -0.5,4c1.298,-1.446 1.465,-2.779 0.5,-4zm-88,1c-1.1,1.058 -2.434,1.892 -4,2.5c2.562,1.273 4.896,0.606 7,-2c-0.948,-0.483 -1.948,-0.649 -3,-0.5z" fill="#1bc5bf"/>
  </g>
  <g id="svg_35">
   <path id="svg_36" opacity="0.811" d="m783.5,604.5c2.333,0 4.667,0 7,0c0.152,5.018 -2.181,8.351 -7,10c-0.692,-3.27 -0.692,-6.603 0,-10z" fill="#1bc5bf"/>
  </g>
  <g id="svg_37">
   <path id="svg_38" opacity="0.946" d="m835.5,604.5c12.333,0 24.667,0 37,0c-0.167,33.501 -0.167,67.001 0,100.5c-0.333,10.167 -0.667,20.333 -1,30.5c-2.589,1.787 -2.423,2.121 0.5,1c0.499,5.657 0.666,11.324 0.5,17c-12.333,0 -24.667,0 -37,0c0.088,-49.523 0.088,-99.19 0,-149zm19,38c0.022,2.3 1.022,3.467 3,3.5c-0.474,-1.729 -1.474,-2.895 -3,-3.5zm6,38c-1.391,4.161 -4.391,6.161 -9,6c2.475,-2.741 5.475,-4.741 9,-6zm-17,4c-0.963,0.863 -0.963,1.53 0,2c2.475,-1.087 2.475,-1.753 0,-2zm-1,52c-1.395,1.148 -1.228,2.148 0.5,3c1.927,-1.262 1.76,-2.262 -0.5,-3z" fill="#1bc5bf"/>
  </g>
  <g id="svg_39">
   <path id="svg_40" opacity="0.967" d="m1018.5,738.5c-2.81,4.62 -4.81,9.62 -6,15c-9.34,0.166 -18.673,0 -28,-0.5c-17.546,-29.588 -34.712,-59.422 -51.5,-89.5c-0.5,29.998 -0.667,59.998 -0.5,90c-11.754,0.632 -23.254,-0.035 -34.5,-2c-0.333,0.333 -0.667,0.667 -1,1c-0.667,-28.333 -0.667,-56.667 0,-85c1.946,-1.494 2.779,-3.494 2.5,-6c-0.225,-3.294 -0.892,-6.461 -2,-9.5c2.077,-4.822 4.411,-9.488 7,-14c-0.412,-2.205 -0.412,-4.538 0,-7c-0.13,-1.059 -0.63,-1.892 -1.5,-2.5c-2.072,7.29 -4.072,14.623 -6,22c-0.098,-15.474 -0.265,-30.807 -0.5,-46c12.351,-0.332 24.685,0.001 37,1c1.247,2.829 2.747,5.495 4.5,8c0.687,2.068 0.52,4.068 -0.5,6c0.598,1.295 1.098,2.628 1.5,4c0.333,-2 0.667,-4 1,-6c14.92,25.504 29.586,51.171 44,77c0.5,-29.998 0.667,-59.998 0.5,-90c12,0 24,0 36,0c-0.05,38.277 -0.22,76.61 -0.5,115c-1.54,1.968 -2.71,4.135 -3.5,6.5c1.42,3.746 2.09,7.912 2,12.5zm-78,-108c-0.304,0.65 -0.637,1.317 -1,2c0.73,2.609 1.23,5.276 1.5,8c0.374,-0.916 0.874,-1.75 1.5,-2.5c-0.623,-2.607 -1.29,-5.107 -2,-7.5zm1,13c-0.019,1.56 -0.352,3.06 -1,4.5c0.13,1.059 0.63,1.892 1.5,2.5c1.934,-2.534 1.767,-4.867 -0.5,-7zm74,3c-0.72,1.637 -0.88,3.303 -0.5,5c1.45,-1.744 1.62,-3.411 0.5,-5zm-2,6c-0.69,3.569 -1.69,7.069 -3,10.5c0.33,0.5 0.67,1 1,1.5c1,-3.327 2,-6.661 3,-10c-0.04,-0.916 -0.38,-1.583 -1,-2zm-73,11c0.839,-2.281 1.839,-4.615 3,-7c-0.308,-0.808 -0.808,-1.475 -1.5,-2c-1.376,3.093 -1.876,6.093 -1.5,9zm70,5c-1.73,0.343 -2.23,1.343 -1.5,3c0.51,-1.027 1.01,-2.027 1.5,-3zm-12,10c-1.6,1.144 -3.267,2.311 -5,3.5c3.233,-0.107 6.233,-1.107 9,-3c-1.29,-0.49 -2.627,-0.657 -4,-0.5zm5,3c-0.76,0.768 -1.76,1.268 -3,1.5c1.63,0.494 3.3,0.66 5,0.5c-0.15,1.052 0.02,2.052 0.5,3c0.49,-1.634 0.66,-3.301 0.5,-5c-1,0 -2,0 -3,0zm-88,23c-1.333,0 -2.667,0 -4,0c0.163,-2.357 -0.003,-4.69 -0.5,-7c-0.667,3 -0.667,6 0,9c1.622,-0.599 3.122,-1.266 4.5,-2zm-1,4c0.65,0.304 1.317,0.637 2,1c3.417,-0.258 5.25,-1.924 5.5,-5c-2.514,1.504 -5.014,2.838 -7.5,4zm-7,7c-1.322,1.811 -1.822,3.811 -1.5,6c0.85,-1.51 1.683,-3.01 2.5,-4.5c-0.07,-0.765 -0.403,-1.265 -1,-1.5zm-3,12c1.868,-1.286 2.034,-2.619 0.5,-4c-0.49,1.293 -0.657,2.627 -0.5,4zm0,0c0.237,1.291 -0.096,2.291 -1,3c-1.315,-1.395 -0.981,-2.395 1,-3zm70,0c-0.718,1.637 -0.884,3.303 -0.5,5c1.677,-1.648 1.844,-3.315 0.5,-5zm-72,6c-0.891,1.791 -1.891,3.624 -3,5.5c0.333,0.167 0.667,0.333 1,0.5c1.586,-1.673 2.253,-3.673 2,-6z" fill="#1bc5bf"/>
  </g>
  <g id="svg_41">
   <path id="svg_42" opacity="0.161" d="m189.5,627.5c1.837,0.139 2.17,0.806 1,2c-0.798,-0.457 -1.131,-1.124 -1,-2z" fill="#9090f1"/>
  </g>
  <g id="svg_43">
   <path id="svg_44" opacity="0.359" d="m225.5,650.5c1.273,0.577 1.273,1.243 0,2c-0.963,-0.47 -0.963,-1.137 0,-2z" fill="#9797f4"/>
  </g>
  <g id="svg_45">
   <path id="svg_46" opacity="0.848" d="m1018.5,738.5c0.77,-0.763 1.27,-1.763 1.5,-3c0.5,5.991 0.67,11.991 0.5,18c-1.7,0.16 -3.37,-0.006 -5,-0.5c1.16,-4.526 2.16,-9.359 3,-14.5z" fill="#1bc5bf"/>
  </g>
  <g id="svg_47">
   <path id="svg_48" opacity="0.059" d="m268.5,813.5c1.837,0.139 2.17,0.806 1,2c-0.798,-0.457 -1.131,-1.124 -1,-2z" fill="#00218a"/>
  </g>
 </g>

</svg>